<svg width="669" height="540" viewBox="0 0 669 540" fill="none" xmlns="http://www.w3.org/2000/svg">
<path d="M410.754 546.97L249.796 239.398M249.796 239.398L490.143 183.091M249.796 239.398L227.328 83.4025L199.509 546.97M490.143 183.091L485.349 546.97M490.143 183.091L668 546.97M1 1L227.328 83.4328M260.861 260.559L489.828 206.916L511.207 226.169M258.077 255.231L489.925 200.921L505.905 215.331M475.568 546.97L485.398 544.669M286.622 309.782L489.102 262.375L560.162 326.372M406.904 539.613L485.712 521.208L514.403 546.97M263.67 265.887L489.756 212.94L516.533 237.067M275.025 287.592L489.441 237.4L538.13 281.265M399.738 525.9L485.93 505.768M272.168 282.143L489.514 231.255L532.682 270.125M441.962 546.97L485.519 536.798M345.262 421.852L487.456 388.613L663.545 546.97M487.819 360.943L332.406 397.271L270.182 499.805L225.391 458.513L210.864 358.007M358.409 446.979L487.068 416.918M292.505 321.044L488.932 275.06L571.372 349.288M375.284 479.189L486.608 453.185L590.959 546.97M355.092 440.621L487.165 409.743M368.481 466.202L486.802 438.563L607.399 546.97M486.971 424.062L361.75 453.336L304.877 546.97M280.787 298.642L489.271 249.812L549.098 303.698M310.567 355.555L488.424 313.96M392.644 512.368L486.1 490.541L548.928 546.97M319.816 373.234L488.158 333.849L623.233 455.395M385.647 498.987L486.318 475.465L565.876 546.97M335.602 403.356L487.722 367.785L653.134 516.606M486.221 482.973L389.133 505.647L364.002 546.97M403.297 532.742L485.809 513.488L523.119 546.97M322.939 379.198L488.061 340.57M307.516 349.712L488.521 307.361L599.893 407.594M486.39 468.018L382.16 492.358L348.966 546.97M304.49 343.9L488.593 300.822L594.107 395.818M485.398 544.699L487.94 547M521.884 248.056L489.683 219.025L266.478 271.275L253.912 292.043L244.857 283.687L224.011 138.923L189.05 159.599L1 91.1826M485.906 505.799L531.762 546.97M500.627 204.524L489.998 194.958L255.292 249.933L251.152 256.775L248.174 254.02M543.578 292.466L489.344 243.606L277.906 293.102L256.745 328.037L241.492 313.96L221.735 176.885L162.877 211.668L1 152.818M495.373 193.777L490.07 188.994L252.532 244.635L250.474 248.056L248.973 246.694M665.337 541.551L487.528 381.62L342.018 415.646L272.555 530.077L222.534 484.002L208.928 389.914M485.494 536.828L496.825 547M505.638 546.97L485.591 528.988L410.512 546.516L410.221 546.97M487.819 360.913L647.106 504.225M487.068 416.888L631.756 546.97M611.491 431.358L488.351 320.529L313.642 361.398L265.558 440.712L230.936 408.774M487.165 409.773L639.77 546.97M486.971 424.092L623.669 547M488.424 313.93L605.656 419.461M641.077 491.934L487.891 354.102L329.234 391.216L269.408 489.815M540.382 546.97L486.003 498.14L396.179 519.119L379.231 546.97M486.197 482.973L557.427 546.97M527.283 259.045L489.586 225.109L269.311 276.694L254.614 300.973L244.034 291.195M647.735 546.97L487.262 402.659L351.799 434.325L283.402 546.97M635.097 479.673L487.988 347.321L326.087 385.192L268.633 479.885L227.256 441.741L212.123 336.998L52.5704 431.146M615.558 546.97L486.899 431.297L365.115 459.754L312.117 546.97M582.631 546.97L486.511 460.571L378.722 485.758L341.509 546.97M588.393 384.102L488.69 294.343L301.464 338.148L262.556 402.357L234.519 376.504M659.235 529.048L487.625 374.687L338.798 409.471L271.756 519.936L223.503 475.465L209.581 379.228L23.4924 488.997M617.35 443.376L488.255 327.189L316.717 367.301L266.309 450.43L230.016 416.948L213.988 305.938M582.679 372.417L488.763 287.865L298.461 332.396L261.805 392.881M565.755 337.785L489.029 268.702L289.552 315.383L259.602 364.818L238.03 344.899M599.191 546.97L486.705 445.859L371.87 472.68L326.716 546.97M488.085 340.57L629.165 467.504M655.652 546.97L487.359 395.606L348.531 428.058L276.332 546.97M486.414 467.988L574.302 546.97M577.014 360.822L488.86 281.447L295.483 326.705L261.079 383.466L236.286 360.61L218.225 235.342L122.59 291.831L1 247.663M554.618 314.989L489.199 256.079L283.692 304.182L258.174 346.322L239.773 329.339L220.573 196.169L149.585 238.127L1 184.12M260.861 260.529L252.532 274.303L246.528 268.763L225.125 120.214M251.83 265.524L258.053 255.231M258.876 355.555L286.598 309.782M402.401 546.97L406.88 539.583M253.21 283.142L263.645 265.887M256.019 318.985L275.025 287.623M386.906 546.97L399.713 525.9M272.168 282.113L255.317 309.934L243.187 298.733L222.873 157.813M345.262 421.822L273.354 540.279L221.59 492.6L208.298 400.692M297.662 546.97L358.409 446.948M260.353 374.112L292.53 321.014M334.076 546.97L375.26 479.189M290.52 546.97L355.116 440.621M319.404 546.97L368.481 466.172M257.447 337.149L280.787 298.612M310.591 355.525L264.808 431.025L231.832 400.631M371.58 546.97L392.619 512.368M267.083 460.178L319.84 373.204M356.448 546.97L385.622 498.987M270.957 509.825L335.577 403.356M394.629 546.97L403.297 532.711M322.963 379.198L267.858 470.016L228.176 433.447L212.729 326.584M264.057 421.428L307.541 349.712M263.306 411.862L304.49 343.93M1 60.819L201.93 133.958M1 45.7432L208.347 121.213L225.682 110.951L247.351 261.376L251.854 265.524M1 199.892L142.879 251.447L219.968 205.886M1 75.9554L195.514 146.733L224.568 129.569M1 137.288L169.463 198.56L222.292 167.319L242.339 306.331L256.019 318.955M1 30.7582L214.69 108.559M1 121.849L176.024 185.513M1 15.8337L221.033 95.9355L226.796 92.5449L248.997 246.694M1 498.17L16.1321 503.649L208.952 389.914M1 515.577L8.72348 518.362L208.298 400.661M1 446.464L38.0919 459.905M1 231.648L129.393 278.299L218.806 225.473L237.158 352.74L260.328 374.112M1 345.504L81.0187 374.536L214.593 295.675L230.912 408.774M1 168.439L156.244 224.867L221.154 186.512L240.645 321.649M1 328.975L88.04 360.55M1 378.804L66.855 402.69L213.358 316.231L229.096 425.182L267.083 460.208M1 429.42L45.3553 445.495L211.494 347.472L226.336 450.127M1 463.598L30.8043 474.406M1 106.47L182.561 172.495L223.454 148.338M1 412.468L52.5461 431.176M1 279.933L108.862 319.106L217.014 255.231L234.519 376.473M1 480.824L23.4924 488.967M1 362.124L73.949 388.583L213.964 305.938M1 263.768L115.738 305.453M1 215.725L136.148 264.827L219.387 215.634M1 395.576L59.7369 416.888L212.753 326.584M1 312.537L95.0129 346.685L215.828 275.362L232.752 392.548M1 533.105L1.26635 533.196L207.644 411.499L220.622 501.228L270.279 546.97M1 296.19L101.962 332.85L216.409 265.251M219.992 205.886L238.926 337.119M224.568 129.538L245.705 276.18M226.239 101.718L248.174 253.99M217.716 527.444L205.683 444.315L31.5307 546.97M209.073 546.97L202.318 500.259L123.001 546.97M206.337 433.326L218.685 518.665L249.433 546.97M203.674 477.706L213.697 547M205.005 455.395L216.724 536.283L228.345 546.97M215.198 285.504L231.832 400.661M200.26 534.588L202.052 547M210.211 368.572L224.423 466.959M199.679 546.97L199.558 546.152L198.154 546.97M223.43 148.338L244.01 291.195M201.64 511.641L206.749 547M217.619 245.271L235.415 368.542L261.829 392.912M219.411 215.664L238.054 344.899M211.397 546.97L202.996 488.937L104.504 546.97M200.938 523.084L204.4 547M216.433 265.281L233.647 384.496M238.901 337.088L258.876 355.525M245.705 276.21L253.234 283.173M217.692 527.444L238.901 546.97M240.62 321.649L257.447 337.179M226.311 450.097L269.383 489.815M224.447 466.959L270.981 509.825M259.893 546.97L219.653 509.916L206.991 422.367L1.00006 543.821M217.692 547L215.731 545.184L204.352 466.505L67.7993 546.97M232.727 392.548L264.033 421.428M233.623 384.496L263.282 411.862M201.955 133.928L225.149 120.214M214.714 108.559L226.239 101.748M176.024 185.482L222.873 157.783M38.1161 459.905L210.864 357.977M13.5415 546.97L206.337 433.295M86.1031 546.97L203.674 477.675M49.6165 546.97L205.03 455.364M88.0401 360.58L215.223 285.504M179.196 546.97L200.236 534.558M30.8284 474.406L210.235 368.572M141.62 546.97L201.616 511.611M115.738 305.423L217.619 245.241M160.359 546.97L200.938 523.054" stroke="url(#paint0_radial_7151_4012)" stroke-miterlimit="10"/>
<defs>
<radialGradient id="paint0_radial_7151_4012" cx="0" cy="0" r="1" gradientUnits="userSpaceOnUse" gradientTransform="translate(282.651 220.81) rotate(124.787) scale(271.51 407.336)">
<stop stop-color="#C4C4C4"/>
<stop offset="1" stop-color="#F5F4F3"/>
</radialGradient>
</defs>
</svg>
