<svg width="142" height="42" viewBox="0 0 142 42" fill="none" xmlns="http://www.w3.org/2000/svg">
<rect width="42" height="42" rx="4" fill="#473726"/>
<path d="M13.0003 28.9999C13.0003 26.7907 14.7912 24.9998 17.0004 24.9998H21.0002V28.9999C21.0002 31.2091 19.2095 33.0001 17.0004 33.0001C14.7912 33.0001 13.0003 31.2091 13.0003 28.9999Z" fill="#24CB71"/>
<path d="M20.9996 8.99976V16.9999H24.9997C27.2088 16.9999 28.9997 15.2091 28.9997 12.9999C28.9997 10.7907 27.2088 8.99976 24.9997 8.99976H20.9996Z" fill="#FF7237"/>
<path d="M24.9664 25.0005C27.1755 25.0005 28.9663 23.2096 28.9663 21.0004C28.9663 18.7912 27.1755 17.0002 24.9664 17.0002C22.7572 17.0002 20.9664 18.7912 20.9664 21.0004C20.9664 23.2096 22.7572 25.0005 24.9664 25.0005Z" fill="#00B6FF"/>
<path d="M13.0003 12.9999C13.0003 15.2091 14.7912 17.0001 17.0004 17.0001H21.0002V8.99976H17.0004C14.7912 8.99976 13.0003 10.7907 13.0003 12.9999Z" fill="#FF3737"/>
<path d="M13.0003 21.0002C13.0003 23.2094 14.7912 25.0004 17.0004 25.0004H21.0002V17.0002H17.0004C14.7912 17.0002 13.0003 18.791 13.0003 21.0002Z" fill="#874FFF"/>
<path d="M56.0085 31V10.6364H69.054V13.7287H59.6974V19.2571H68.1591V22.3494H59.6974V31H56.0085ZM71.9757 31V15.7273H75.5751V31H71.9757ZM73.7853 13.5597C73.2153 13.5597 72.7247 13.3707 72.3137 12.9929C71.9028 12.6084 71.6973 12.1477 71.6973 11.6108C71.6973 11.0672 71.9028 10.6065 72.3137 10.2287C72.7247 9.84422 73.2153 9.65199 73.7853 9.65199C74.362 9.65199 74.8526 9.84422 75.2569 10.2287C75.6679 10.6065 75.8734 11.0672 75.8734 11.6108C75.8734 12.1477 75.6679 12.6084 75.2569 12.9929C74.8526 13.3707 74.362 13.5597 73.7853 13.5597ZM85.6385 37.0455C84.3459 37.0455 83.2356 36.8698 82.3075 36.5185C81.3795 36.1738 80.6338 35.7098 80.0703 35.1264C79.5069 34.5431 79.1158 33.8968 78.897 33.1875L82.1385 32.402C82.2843 32.7003 82.4965 32.9953 82.7749 33.2869C83.0533 33.5852 83.4278 33.8305 83.8985 34.0227C84.3757 34.2216 84.9756 34.321 85.6982 34.321C86.719 34.321 87.5642 34.0724 88.2337 33.5753C88.9032 33.0848 89.2379 32.276 89.2379 31.1491V28.2557H89.059C88.8734 28.6269 88.6016 29.008 88.2436 29.3991C87.8923 29.7902 87.425 30.1184 86.8416 30.3835C86.2649 30.6487 85.5391 30.7812 84.6641 30.7812C83.4908 30.7812 82.4269 30.5062 81.4723 29.956C80.5244 29.3991 79.7687 28.5705 79.2053 27.4702C78.6485 26.3632 78.37 24.9777 78.37 23.3139C78.37 21.6368 78.6485 20.2216 79.2053 19.0682C79.7687 17.9081 80.5277 17.0298 81.4823 16.4332C82.4368 15.83 83.5007 15.5284 84.674 15.5284C85.5689 15.5284 86.3047 15.6809 86.8814 15.9858C87.4647 16.2841 87.9288 16.6454 88.2735 17.0696C88.6181 17.4872 88.88 17.8816 89.059 18.2528H89.2578V15.7273H92.8075V31.2486C92.8075 32.5545 92.496 33.6349 91.8729 34.4901C91.2498 35.3452 90.398 35.9848 89.3175 36.4091C88.237 36.8333 87.0107 37.0455 85.6385 37.0455ZM85.6683 27.9574C86.4306 27.9574 87.0803 27.7718 87.6172 27.4006C88.1541 27.0294 88.5618 26.4957 88.8402 25.7997C89.1186 25.1037 89.2578 24.2685 89.2578 23.294C89.2578 22.3329 89.1186 21.491 88.8402 20.7685C88.5684 20.0459 88.1641 19.4858 87.6271 19.0881C87.0968 18.6837 86.4439 18.4815 85.6683 18.4815C84.8663 18.4815 84.1967 18.6903 83.6598 19.108C83.1229 19.5256 82.7185 20.099 82.4467 20.8281C82.175 21.5507 82.0391 22.3726 82.0391 23.294C82.0391 24.2287 82.175 25.0473 82.4467 25.75C82.7252 26.446 83.1328 26.9896 83.6698 27.3807C84.2133 27.7652 84.8795 27.9574 85.6683 27.9574ZM96.2165 31V15.7273H99.6568V18.3224H99.8358C100.154 17.4474 100.681 16.7647 101.417 16.2741C102.153 15.777 103.031 15.5284 104.052 15.5284C105.086 15.5284 105.957 15.7803 106.667 16.2841C107.383 16.7812 107.886 17.4607 108.178 18.3224H108.337C108.675 17.474 109.245 16.7978 110.047 16.294C110.856 15.7836 111.814 15.5284 112.921 15.5284C114.326 15.5284 115.473 15.9725 116.361 16.8608C117.25 17.7491 117.694 19.045 117.694 20.7486V31H114.084V21.3054C114.084 20.3575 113.832 19.6648 113.329 19.2273C112.825 18.7831 112.208 18.5611 111.479 18.5611C110.611 18.5611 109.931 18.8329 109.441 19.3764C108.957 19.9134 108.715 20.6127 108.715 21.4744V31H105.185V21.1562C105.185 20.3674 104.947 19.7377 104.469 19.267C103.999 18.7964 103.382 18.5611 102.62 18.5611C102.103 18.5611 101.632 18.6937 101.208 18.9588C100.784 19.2173 100.446 19.5852 100.194 20.0625C99.9418 20.5331 99.8159 21.0833 99.8159 21.7131V31H96.2165ZM125.46 31.3082C124.492 31.3082 123.621 31.1359 122.845 30.7912C122.076 30.4399 121.466 29.9228 121.016 29.2401C120.572 28.5573 120.349 27.7154 120.349 26.7145C120.349 25.8527 120.509 25.1402 120.827 24.5767C121.145 24.0133 121.579 23.5625 122.129 23.2244C122.679 22.8864 123.299 22.6312 123.989 22.4588C124.685 22.2798 125.404 22.1506 126.146 22.071C127.041 21.9782 127.767 21.8954 128.324 21.8224C128.881 21.7429 129.285 21.6236 129.537 21.4645C129.795 21.2988 129.925 21.0436 129.925 20.6989V20.6392C129.925 19.8902 129.703 19.3101 129.259 18.8991C128.814 18.4882 128.175 18.2827 127.34 18.2827C126.458 18.2827 125.759 18.4749 125.242 18.8594C124.731 19.2438 124.386 19.6979 124.207 20.2216L120.847 19.7443C121.112 18.8163 121.549 18.0407 122.159 17.4176C122.769 16.7879 123.515 16.3172 124.396 16.0057C125.278 15.6875 126.252 15.5284 127.32 15.5284C128.055 15.5284 128.788 15.6146 129.517 15.7869C130.246 15.9593 130.912 16.2443 131.516 16.642C132.119 17.0331 132.603 17.5668 132.967 18.2429C133.339 18.919 133.524 19.7642 133.524 20.7784V31H130.064V28.902H129.945C129.726 29.3262 129.418 29.724 129.02 30.0952C128.629 30.4598 128.135 30.7547 127.538 30.9801C126.948 31.1989 126.256 31.3082 125.46 31.3082ZM126.395 28.6634C127.117 28.6634 127.744 28.5208 128.274 28.2358C128.804 27.9441 129.212 27.5597 129.497 27.0824C129.789 26.6051 129.935 26.0848 129.935 25.5213V23.7216C129.822 23.8144 129.63 23.9006 129.358 23.9801C129.093 24.0597 128.795 24.1293 128.463 24.1889C128.132 24.2486 127.804 24.3016 127.479 24.348C127.154 24.3944 126.872 24.4342 126.634 24.4673C126.097 24.5402 125.616 24.6596 125.192 24.8253C124.768 24.991 124.433 25.223 124.188 25.5213C123.942 25.813 123.82 26.1908 123.82 26.6548C123.82 27.3177 124.062 27.8182 124.545 28.1562C125.029 28.4943 125.646 28.6634 126.395 28.6634Z" fill="#473726"/>
</svg>
