<svg width="870" height="805" viewBox="0 0 870 805" fill="none" xmlns="http://www.w3.org/2000/svg">
<path d="M402.875 852.953L654.326 373.006M654.326 373.006L278.852 285.142M654.326 373.006L689.426 129.584L732.885 852.953M278.852 285.142L286.341 852.953M278.852 285.142L1 852.953M1043 1L689.426 129.631M637.04 406.026L279.343 322.319L245.945 352.363M641.39 397.712L279.192 312.965L254.228 335.451M301.621 852.953L286.265 849.363M596.796 482.836L280.478 408.86L169.466 508.723M408.889 841.474L285.773 812.753L240.952 852.953M632.653 414.34L279.457 331.719L237.624 369.369M614.913 448.21L279.948 369.888L203.885 438.337M420.085 820.075L285.433 788.661M619.377 439.707L279.835 360.299L212.396 420.953M354.12 852.953L286.076 837.081M505.187 657.715L283.05 605.846L7.95953 852.953M282.483 562.67L525.272 619.357L622.478 779.355L692.452 714.921L715.146 558.088M484.649 696.923L283.655 650.015M587.605 500.409L280.743 428.653L151.954 544.483M458.286 747.185L284.374 706.607L121.354 852.953M489.831 687.003L283.504 638.819M468.915 726.919L284.071 683.79L95.6723 852.953M283.806 661.163L479.43 706.843L568.277 852.953M605.911 465.452L280.213 389.256L186.751 473.341M559.388 554.261L281.537 489.355M431.167 798.959L285.168 764.9L187.016 852.953M544.94 581.849L281.953 520.391L70.9357 710.055M442.098 778.079L284.828 741.375L160.54 852.953M520.279 628.852L282.634 573.346L24.2236 805.572M284.979 753.09L436.651 788.472L475.912 852.953M414.524 830.75L285.622 800.707L227.336 852.953M540.061 591.155L282.104 530.878M564.154 545.144L281.386 479.057L107.398 635.465M284.714 729.754L447.544 767.734L499.4 852.953M568.882 536.075L281.272 468.854L116.437 617.089M286.265 849.41L282.293 853M229.265 386.516L279.57 341.214L628.265 422.749L647.896 455.154L662.042 442.116L694.608 216.22L749.225 248.484L1043 141.725M285.471 788.708L213.833 852.953M262.474 318.587L279.078 303.659L645.74 389.445L652.207 400.121L656.86 395.822M195.375 455.816L280.1 379.572L610.412 456.808L643.47 511.321L667.299 489.355L698.163 275.458L790.112 329.735L1043 237.903M270.682 301.817L278.965 294.353L650.052 381.178L653.266 386.516L655.612 384.391M5.16059 844.497L282.936 594.934L510.256 648.031L618.771 826.593L696.915 754.696L718.172 607.878M286.114 837.128L268.412 853M254.644 852.953L285.962 824.893L403.253 852.244L403.707 852.953M282.483 562.623L33.6417 786.252M283.655 649.967L57.6218 852.953M89.2801 672.548L281.65 499.606L554.585 563.379L629.702 687.144L683.79 637.307M283.504 638.866L45.1022 852.953M283.806 661.21L70.2549 853M281.537 489.308L98.3955 653.983M43.0597 767.073L282.369 551.994L530.227 609.909L623.688 763.766M200.368 852.953L285.319 776.756L425.645 809.493L452.121 852.953M285.017 753.09L173.74 852.953M220.83 403.664L279.721 350.709L623.84 431.204L646.799 469.09L663.328 453.832M32.6583 852.953L283.353 627.765L494.975 677.177L601.826 852.953M52.4022 747.941L282.218 541.413L535.144 600.508L624.899 748.271L689.539 688.75L713.179 525.304L962.436 672.217M82.9257 852.953L283.92 672.453L474.172 716.858L556.968 852.953M134.366 852.953L284.525 718.133L452.915 757.436L511.05 852.953M125.364 598.808L281.121 458.745L573.61 527.099L634.393 627.293L678.192 586.951M14.6921 824.987L282.785 584.116L515.286 638.394L620.02 810.768L695.402 741.375L717.15 591.202L1007.86 762.49M80.1268 691.301L281.802 509.999L549.781 572.59L628.53 702.308L685.227 650.062L710.266 476.837M134.29 580.574L281.007 448.635L578.3 518.124L635.565 612.507M160.729 526.532L280.591 418.733L592.219 491.576L639.007 568.717L672.708 537.633M108.494 852.953L284.222 695.175L463.619 737.029L534.16 852.953M282.067 530.878L61.6689 728.951M20.29 852.953L283.201 616.758L500.081 667.398L612.871 852.953M284.676 729.707L147.377 852.953M143.141 562.481L280.856 438.621L582.953 509.243L636.7 597.816L675.431 562.15L703.647 366.676L853.05 454.824L1043 385.902M178.128 490.961L280.327 399.035L601.373 474.097L641.239 539.854L669.984 513.353L699.979 305.549L810.877 371.022L1043 286.748M637.04 405.979L650.052 427.472L659.432 418.828L692.868 187.027M651.148 413.773L641.428 397.712M640.142 554.261L596.834 482.836M415.924 852.953L408.927 841.427M648.992 441.266L632.69 414.34M644.605 497.197L614.913 448.257M440.131 852.953L420.122 820.075M619.377 439.66L645.702 483.073L664.651 465.594L696.385 245.697M505.187 657.667L617.523 842.513L698.39 768.112L719.155 624.695M579.548 852.953L484.649 696.876M637.834 583.219L587.567 500.362M522.662 852.953L458.324 747.185M590.706 852.953L489.793 687.003M545.583 852.953L468.915 726.872M642.373 525.54L605.911 465.405M559.351 554.214L630.875 672.028L682.391 624.6M464.073 852.953L431.205 798.959M627.32 717.519L544.902 581.802M487.713 852.953L442.136 778.079M621.268 794.991L520.317 628.852M428.065 852.953L414.524 830.703M540.023 591.155L626.109 732.872L688.102 675.807L712.233 509.054M632.047 657.053L564.116 545.144M633.22 642.126L568.882 536.122M1043 94.344L729.103 208.473M1043 70.819L719.079 188.585L691.998 172.572L658.146 407.301L651.111 413.773M1043 311.359L821.354 391.807L700.924 320.713M1043 117.963L739.126 228.408L693.738 201.623M1043 213.669L779.824 309.281L697.293 260.53L665.975 477.451L644.605 497.15M1043 47.4358L709.17 168.84M1043 189.578L769.574 288.921M1043 24.147L699.26 149.141L690.258 143.85L655.574 384.391M1043 776.804L1019.36 785.354L718.134 607.878M1043 803.966L1030.93 808.312L719.155 624.647M1043 696.12L985.054 717.094M1043 360.913L842.422 433.708L702.74 351.276L674.069 549.868L637.872 583.219M1043 538.578L917.993 583.88L709.321 460.823L683.828 637.307M1043 262.278L800.476 350.331L699.071 290.48L668.623 501.354M1043 512.786L907.024 562.056M1043 590.541L940.12 627.812L711.25 492.898L686.665 662.911L627.32 717.566M1043 669.524L973.707 694.608L714.162 541.649L690.977 701.836M1043 722.857L996.439 739.721M1043 165.58L759.361 268.608L695.478 230.912M1043 643.07L962.474 672.264M1043 436.259L874.496 497.386L705.539 397.712L678.192 586.904M1043 749.736L1007.86 762.443M1043 564.512L929.038 605.799L710.304 476.837M1043 411.033L863.754 476.081M1043 336.065L831.869 412.687L701.832 335.923M1043 616.711L951.24 649.967L712.195 509.054M1043 487.135L896.131 540.421L707.392 429.126L680.953 611.987M1043 831.317L1042.58 831.459L720.176 641.559L699.903 781.575L622.327 852.953M1043 461.626L885.276 518.832L706.484 413.348M700.886 320.713L671.308 525.493M693.738 201.576L660.718 430.401M691.128 158.164L656.86 395.775M704.442 822.484L723.24 692.766L995.304 852.953M717.945 852.953L728.497 780.063L852.407 852.953M722.219 675.618L702.929 808.784L654.893 852.953M726.379 744.87L710.72 853M724.299 710.055L705.992 836.277L687.837 852.953M708.375 444.951L682.391 624.647M731.712 833.632L728.914 853M716.167 574.574L693.965 728.1M732.62 852.953L732.809 851.677L735.003 852.953M695.515 230.912L663.365 453.832M729.557 797.825L721.576 853M704.593 382.17L676.793 574.527L635.527 612.554M701.794 335.971L672.67 537.633M714.314 852.953L727.438 762.396L881.304 852.953M730.653 815.681L725.245 853M706.446 413.395L679.554 599.422M671.346 525.446L640.142 554.214M660.718 430.448L648.955 441.313M704.48 822.484L671.346 852.953M668.661 501.354L642.373 525.588M691.014 701.788L623.726 763.766M693.927 728.1L621.23 794.991M638.553 852.953L701.416 795.132L721.198 658.518L1043 848.04M704.48 853L707.543 850.166L725.32 727.392L938.645 852.953M680.991 611.987L632.085 657.053M679.592 599.422L633.258 642.126M729.065 208.426L692.83 187.027M709.132 168.84L691.128 158.211M769.574 288.874L696.385 245.65M985.017 717.094L715.146 558.041M1023.41 852.953L722.219 675.571M910.05 852.953L726.379 744.823M967.05 852.953L724.261 710.008M907.024 562.103L708.338 444.951M764.619 852.953L731.75 833.585M996.401 739.721L716.129 574.574M823.321 852.953L729.594 797.778M863.754 476.034L704.593 382.123M794.046 852.953L730.653 815.634" stroke="url(#paint0_radial_97_919)" stroke-miterlimit="10"/>
<defs>
<radialGradient id="paint0_radial_97_919" cx="0" cy="0" r="1" gradientUnits="userSpaceOnUse" gradientTransform="translate(603 344) rotate(55.1824) scale(423.832 636.112)">
<stop stop-color="#C4C4C4"/>
<stop offset="1" stop-color="#F5F4F3"/>
</radialGradient>
</defs>
</svg>
