<svg width="122" height="28" viewBox="0 0 122 28" fill="none" xmlns="http://www.w3.org/2000/svg">
<path fill-rule="evenodd" clip-rule="evenodd" d="M0.133068 17.9992L12.0665 28L24 17.9992C23.4844 16.3847 22.619 15.0248 21.514 13.9197C22.563 12.8258 23.3807 11.4931 23.8662 9.92226L11.8368 0L0 10.0787C0.520889 11.6588 1.37708 12.9918 2.46397 14.0781C1.43304 15.154 0.624251 16.461 0.133068 17.9992ZM21.514 13.9197C16.7754 18.8613 7.31852 18.93 2.46397 14.0781C7.21072 9.12443 16.6668 9.07161 21.514 13.9197Z" fill="white"/>
<path d="M37.598 21.5V6.95455H42.9247C43.9569 6.95455 44.8116 7.125 45.4886 7.46591C46.1657 7.80208 46.6723 8.259 47.0085 8.83665C47.3447 9.40956 47.5128 10.0559 47.5128 10.7756C47.5128 11.3816 47.4015 11.893 47.179 12.3097C46.9564 12.7216 46.6581 13.053 46.2841 13.304C45.9148 13.5502 45.5076 13.7301 45.0625 13.8438V13.9858C45.5455 14.0095 46.0166 14.1657 46.4759 14.4545C46.9399 14.7386 47.3234 15.1435 47.6264 15.669C47.9295 16.1946 48.081 16.8338 48.081 17.5866C48.081 18.33 47.9058 18.9976 47.5554 19.5895C47.2098 20.1766 46.6747 20.643 45.9503 20.9886C45.2259 21.3295 44.3002 21.5 43.1733 21.5H37.598ZM39.7926 19.6179H42.9602C44.0114 19.6179 44.7642 19.4143 45.2188 19.0071C45.6733 18.5999 45.9006 18.0909 45.9006 17.4801C45.9006 17.0208 45.7846 16.5994 45.5526 16.2159C45.3205 15.8324 44.9891 15.527 44.5582 15.2997C44.1321 15.0724 43.6255 14.9588 43.0384 14.9588H39.7926V19.6179ZM39.7926 13.2472H42.733C43.2254 13.2472 43.6681 13.1525 44.0611 12.9631C44.4588 12.7737 44.7737 12.5085 45.0057 12.1676C45.2424 11.822 45.3608 11.4148 45.3608 10.946C45.3608 10.3447 45.1501 9.84044 44.7287 9.43324C44.3073 9.02604 43.661 8.82244 42.7898 8.82244H39.7926V13.2472ZM57.424 16.9759V10.5909H59.5547V21.5H57.4666V19.6108H57.353C57.102 20.1932 56.6996 20.6785 56.1456 21.0668C55.5964 21.4503 54.9122 21.642 54.093 21.642C53.3923 21.642 52.772 21.4882 52.2322 21.1804C51.6972 20.8679 51.2758 20.4062 50.968 19.7955C50.665 19.1847 50.5135 18.4295 50.5135 17.5298V10.5909H52.6371V17.2741C52.6371 18.0175 52.843 18.6094 53.255 19.0497C53.6669 19.4901 54.2019 19.7102 54.8601 19.7102C55.2578 19.7102 55.6532 19.6108 56.0462 19.4119C56.4439 19.2131 56.773 18.9124 57.0334 18.5099C57.2985 18.1075 57.4287 17.5961 57.424 16.9759ZM62.408 21.5V10.5909H64.5316V21.5H62.408ZM63.4805 8.90767C63.1112 8.90767 62.7939 8.78456 62.5288 8.53835C62.2683 8.2874 62.1381 7.98911 62.1381 7.64347C62.1381 7.29309 62.2683 6.99479 62.5288 6.74858C62.7939 6.49763 63.1112 6.37216 63.4805 6.37216C63.8498 6.37216 64.1647 6.49763 64.4251 6.74858C64.6902 6.99479 64.8228 7.29309 64.8228 7.64347C64.8228 7.98911 64.6902 8.2874 64.4251 8.53835C64.1647 8.78456 63.8498 8.90767 63.4805 8.90767ZM69.5121 6.95455V21.5H67.3885V6.95455H69.5121ZM76.4528 21.7131C75.5721 21.7131 74.7861 21.4882 74.0948 21.0384C73.4083 20.5838 72.8685 19.9375 72.4755 19.0994C72.0872 18.2566 71.8931 17.2457 71.8931 16.0668C71.8931 14.8878 72.0896 13.8793 72.4826 13.0412C72.8803 12.2031 73.4248 11.5616 74.1161 11.1165C74.8074 10.6714 75.591 10.4489 76.467 10.4489C77.1441 10.4489 77.6886 10.5625 78.1005 10.7898C78.5172 11.0123 78.8391 11.2727 79.0664 11.571C79.2984 11.8693 79.4783 12.1321 79.6062 12.3594H79.734V6.95455H81.8576V21.5H79.7837V19.8026H79.6062C79.4783 20.0346 79.2937 20.2997 79.0522 20.598C78.8155 20.8963 78.4888 21.1567 78.0721 21.3793C77.6554 21.6018 77.1156 21.7131 76.4528 21.7131ZM76.9215 19.902C77.5323 19.902 78.0484 19.741 78.4698 19.419C78.896 19.0923 79.2179 18.6402 79.4357 18.0625C79.6583 17.4848 79.7695 16.8125 79.7695 16.0455C79.7695 15.2879 79.6606 14.625 79.4428 14.0568C79.225 13.4886 78.9054 13.0459 78.484 12.7287C78.0626 12.4115 77.5418 12.2528 76.9215 12.2528C76.2823 12.2528 75.7496 12.4186 75.3235 12.75C74.8974 13.0814 74.5754 13.5336 74.3576 14.1065C74.1445 14.6795 74.038 15.3258 74.038 16.0455C74.038 16.7746 74.1469 17.4304 74.3647 18.0128C74.5825 18.5952 74.9045 19.0568 75.3306 19.3977C75.7615 19.7339 76.2918 19.902 76.9215 19.902ZM88.0632 21.7415C87.3719 21.7415 86.7469 21.6136 86.1882 21.358C85.6295 21.0975 85.1868 20.7211 84.8601 20.2287C84.5381 19.7363 84.3771 19.1326 84.3771 18.4176C84.3771 17.8021 84.4955 17.2955 84.7322 16.8977C84.969 16.5 85.2886 16.1851 85.6911 15.9531C86.0935 15.7211 86.5433 15.5459 87.0405 15.4276C87.5376 15.3092 88.0443 15.2192 88.5604 15.1577C89.2138 15.0819 89.7441 15.0204 90.1513 14.973C90.5585 14.9209 90.8544 14.8381 91.0391 14.7244C91.2237 14.6108 91.3161 14.4261 91.3161 14.1705V14.1207C91.3161 13.5005 91.1409 13.0199 90.7905 12.679C90.4448 12.3381 89.9287 12.1676 89.2422 12.1676C88.5272 12.1676 87.9638 12.3262 87.5518 12.6435C87.1446 12.956 86.8629 13.304 86.7067 13.6875L84.7109 13.233C84.9477 12.5701 85.2933 12.035 85.7479 11.6278C86.2071 11.2159 86.7351 10.9176 87.3317 10.733C87.9283 10.5436 88.5556 10.4489 89.2138 10.4489C89.6494 10.4489 90.111 10.5009 90.5987 10.6051C91.0911 10.7045 91.5504 10.8892 91.9766 11.1591C92.4074 11.429 92.7602 11.8149 93.0348 12.3168C93.3094 12.8139 93.4467 13.4602 93.4467 14.2557V21.5H91.3729V20.0085H91.2876C91.1503 20.2831 90.9444 20.553 90.6697 20.8182C90.3951 21.0833 90.0424 21.3035 89.6115 21.4787C89.1806 21.6539 88.6645 21.7415 88.0632 21.7415ZM88.5249 20.0369C89.112 20.0369 89.6139 19.9209 90.0305 19.6889C90.4519 19.4569 90.7715 19.1539 90.9893 18.7798C91.2119 18.401 91.3232 17.9962 91.3232 17.5653V16.1591C91.2474 16.2348 91.1006 16.3059 90.8828 16.3722C90.6697 16.4337 90.4259 16.4882 90.1513 16.5355C89.8767 16.5781 89.6091 16.6184 89.3487 16.6562C89.0883 16.6894 88.8705 16.7178 88.6953 16.7415C88.2834 16.7936 87.907 16.8812 87.5661 17.0043C87.2299 17.1274 86.96 17.3049 86.7564 17.5369C86.5575 17.7642 86.4581 18.0672 86.4581 18.446C86.4581 18.9716 86.6522 19.3693 87.0405 19.6392C87.4287 19.9044 87.9235 20.0369 88.5249 20.0369ZM97.9513 10.5909L100.359 14.8381L102.788 10.5909H105.11L101.708 16.0455L105.139 21.5H102.816L100.359 17.4233L97.9087 21.5H95.5792L98.9741 16.0455L95.6218 10.5909H97.9513ZM107.291 21.5V10.5909H109.414V21.5H107.291ZM108.363 8.90767C107.994 8.90767 107.677 8.78456 107.412 8.53835C107.151 8.2874 107.021 7.98911 107.021 7.64347C107.021 7.29309 107.151 6.99479 107.412 6.74858C107.677 6.49763 107.994 6.37216 108.363 6.37216C108.733 6.37216 109.047 6.49763 109.308 6.74858C109.573 6.99479 109.706 7.29309 109.706 7.64347C109.706 7.98911 109.573 8.2874 109.308 8.53835C109.047 8.78456 108.733 8.90767 108.363 8.90767ZM120.446 13.2543L118.521 13.5952C118.441 13.349 118.313 13.1146 118.138 12.892C117.967 12.6695 117.735 12.4872 117.442 12.3452C117.148 12.2031 116.781 12.1321 116.341 12.1321C115.74 12.1321 115.238 12.267 114.835 12.5369C114.433 12.8021 114.232 13.1454 114.232 13.5668C114.232 13.9313 114.366 14.2249 114.636 14.4474C114.906 14.67 115.342 14.8523 115.943 14.9943L117.676 15.392C118.68 15.6241 119.428 15.9815 119.92 16.4645C120.413 16.9474 120.659 17.5748 120.659 18.3466C120.659 19 120.47 19.5824 120.091 20.0938C119.717 20.6004 119.194 20.9981 118.521 21.2869C117.854 21.5758 117.08 21.7202 116.199 21.7202C114.977 21.7202 113.981 21.4598 113.209 20.9389C112.437 20.4134 111.964 19.6676 111.788 18.7017L113.841 18.3892C113.969 18.9242 114.232 19.3291 114.629 19.6037C115.027 19.8736 115.545 20.0085 116.185 20.0085C116.881 20.0085 117.437 19.8641 117.854 19.5753C118.27 19.2817 118.479 18.9242 118.479 18.5028C118.479 18.1619 118.351 17.8755 118.095 17.6435C117.844 17.4115 117.458 17.2363 116.938 17.1179L115.091 16.7131C114.073 16.4811 113.32 16.1117 112.832 15.6051C112.349 15.0985 112.108 14.4569 112.108 13.6804C112.108 13.0365 112.288 12.473 112.648 11.9901C113.008 11.5071 113.505 11.1307 114.139 10.8608C114.774 10.5862 115.5 10.4489 116.32 10.4489C117.499 10.4489 118.427 10.7045 119.104 11.2159C119.781 11.7225 120.228 12.402 120.446 13.2543Z" fill="white"/>
</svg>
