<svg width="111" height="24" viewBox="0 0 111 24" fill="none" xmlns="http://www.w3.org/2000/svg">
<g clip-path="url(#clip0_54_308)">
<path d="M10.2838 5.53906V6.76979L17.2772 10.257L10.2838 13.7441V24.0006L18.5113 19.898V9.64161L10.2838 5.53906Z" fill="#808080"/>
<path d="M-0.00196838 14.359L8.22549 18.4615V17.2308L1.23212 13.7436L8.22549 10.2564V0L-0.00196838 4.10254V14.359Z" fill="#808080"/>
<path d="M31.9172 18.4486H26.7376V5.55664H31.5254C34.4851 5.55664 35.8997 6.88054 35.8997 8.92068C35.8997 10.3532 35.0944 11.3514 33.9193 11.7422C35.4426 12.1112 36.4872 13.218 36.4872 14.8241C36.4872 16.951 34.9421 18.4485 31.9171 18.4485L31.9172 18.4486ZM31.2861 7.293H28.8269V11.1562H31.4166C33.0488 11.1562 33.8105 10.3749 33.8105 9.20294C33.8105 8.00924 33.0488 7.293 31.2861 7.293V7.293ZM31.6778 12.7407H28.8269V16.7125H31.656C33.4188 16.7125 34.3546 16.018 34.3546 14.6506C34.3546 13.4352 33.5058 12.7407 31.6777 12.7407H31.6778Z" fill="#808080"/>
<path d="M42.1235 18.6005C39.2508 18.6005 37.0527 16.5604 37.0527 13.6738C37.0527 10.7872 39.2508 8.74707 42.1235 8.74707C45.0179 8.74707 47.1942 10.7872 47.1942 13.6738C47.1942 16.5604 45.0179 18.6005 42.1235 18.6005ZM42.1235 10.5268C40.4477 10.5268 39.1637 11.8073 39.1637 13.6738C39.1637 15.5403 40.4695 16.8208 42.1235 16.8208C43.7992 16.8208 45.0832 15.5403 45.0832 13.6738C45.0832 11.8073 43.7775 10.5268 42.1235 10.5268V10.5268Z" fill="#808080"/>
<path d="M52.7657 18.6005C49.893 18.6005 47.6949 16.5604 47.6949 13.6738C47.6949 10.7872 49.893 8.74707 52.7657 8.74707C55.6601 8.74707 57.8364 10.7872 57.8364 13.6738C57.8364 16.5604 55.6601 18.6005 52.7657 18.6005V18.6005ZM52.7657 10.5268C51.09 10.5268 49.8059 11.8073 49.8059 13.6738C49.8059 15.5403 51.1116 16.8208 52.7657 16.8208C54.4414 16.8208 55.7254 15.5403 55.7254 13.6738C55.7254 11.8073 54.4197 10.5268 52.7657 10.5268V10.5268Z" fill="#808080"/>
<path d="M63.9511 13.0226L68.0208 18.4485H65.6051L62.4059 14.4551L61.0566 15.9092V18.4485H59.0109V4.79695L61.0566 4.68848V13.9342H61.1437C61.4701 13.3916 61.9706 12.6971 62.6017 11.9158L65.4744 8.8556L67.7377 8.94243L63.951 13.0227L63.9511 13.0226Z" fill="#808080"/>
<path d="M76.7457 7.96537C76.0275 7.55301 74.6347 7.27086 73.5465 7.27086C71.849 7.27086 70.9132 7.90026 70.9132 8.98549C70.9132 11.5682 77.7032 10.3094 77.7032 14.7587C77.7032 17.1243 75.9839 18.6002 72.676 18.6002C71.109 18.6002 69.5857 18.2529 68.6935 17.7754L68.9111 15.8004C69.7598 16.2996 71.305 16.7337 72.7414 16.7337C74.6565 16.7337 75.5487 16.1043 75.5487 14.954C75.5487 12.2844 68.737 13.6083 68.737 9.15906C68.737 6.94535 70.4998 5.4043 73.5031 5.4043C74.8089 5.4043 76.2669 5.64308 77.1593 6.0988L76.7458 7.96526L76.7457 7.96537Z" fill="#808080"/>
<path d="M84.296 10.6567H81.5104V15.2795C81.5104 16.3648 82.0981 16.8205 83.0556 16.8205C83.5996 16.8205 84.1002 16.6252 84.4484 16.3648L84.5571 18.101C84.1002 18.4265 83.4255 18.6002 82.6203 18.6002C80.5093 18.6002 79.4864 17.5151 79.4864 15.5183V10.6567H78.1371V8.89871H79.4864V6.8152L81.5103 6.35938V8.89871H84.4483L84.2959 10.6567H84.296Z" fill="#808080"/>
<path d="M90.0839 18.6005C87.2113 18.6005 85.0132 16.5604 85.0132 13.6738C85.0132 10.7872 87.2113 8.74707 90.0839 8.74707C92.9784 8.74707 95.1546 10.7872 95.1546 13.6738C95.1546 16.5604 92.9784 18.6005 90.0839 18.6005ZM90.0839 10.5268C88.4082 10.5268 87.1242 11.8073 87.1242 13.6738C87.1242 15.5403 88.4299 16.8208 90.0839 16.8208C91.7596 16.8208 93.0437 15.5403 93.0437 13.6738C93.0437 11.8073 91.738 10.5268 90.0839 10.5268V10.5268Z" fill="#808080"/>
<path d="M101.859 10.8091C101.641 10.7222 101.206 10.6354 100.879 10.6354C99.9436 10.6354 99.0514 11.0912 98.3768 11.7857V18.4487H96.3311V8.94248L98.3768 8.85565V10.1361C99.182 9.22453 100.183 8.74707 101.206 8.74707C101.467 8.74707 101.772 8.79054 101.924 8.85565L101.859 10.8089L101.859 10.8091Z" fill="#808080"/>
<path d="M104.251 14.1511C104.469 15.8007 105.774 16.8207 107.798 16.8207C108.886 16.8207 110.149 16.4734 110.91 15.9309L110.998 17.7322C110.258 18.2748 108.821 18.6004 107.668 18.6004C104.208 18.6004 102.118 16.6687 102.118 13.587C102.118 10.6786 104.121 8.74707 106.797 8.74707C109.235 8.74707 110.998 10.3315 110.998 12.849C110.998 13.218 110.976 13.7388 110.91 14.1511H104.251V14.1511ZM104.186 12.9141H109.061C109.082 12.8272 109.082 12.6753 109.082 12.5668C109.082 11.1995 108.168 10.2445 106.797 10.2445C105.361 10.2445 104.338 11.2863 104.186 12.9141Z" fill="#808080"/>
</g>
<defs>
<clipPath id="clip0_54_308">
<rect width="111" height="24" fill="white"/>
</clipPath>
</defs>
</svg>
