<svg width="81" height="28" viewBox="0 0 81 28" fill="none" xmlns="http://www.w3.org/2000/svg">
<path fill-rule="evenodd" clip-rule="evenodd" d="M0.135949 17.9992L11.7387 28L23.3415 17.9992C22.8402 16.3847 21.9987 15.0248 20.9244 13.9197C21.9443 12.8258 22.7394 11.4931 23.2114 9.92226L11.5153 1.03388e-06L0.00656734 10.0787C0.513022 11.6588 1.34549 12.9918 2.40226 14.0781C1.3999 15.154 0.613521 16.461 0.135949 17.9992ZM20.9244 13.9197C16.3171 18.8613 7.12229 18.9301 2.40226 14.0781C7.01746 9.12443 16.2116 9.07161 20.9244 13.9197Z" fill="#808080"/>
<path d="M30.341 14.0543C30.341 12.832 30.6139 11.7403 31.1598 10.7791C31.7175 9.80604 32.4711 9.05251 33.4204 8.51851C34.3816 7.97264 35.4555 7.69971 36.6422 7.69971C38.0306 7.69971 39.2469 8.05571 40.2912 8.76771C41.3355 9.47971 42.0653 10.4646 42.4806 11.7225H39.6148C39.33 11.1292 38.9265 10.6842 38.4044 10.3875C37.8941 10.0908 37.3008 9.94251 36.6244 9.94251C35.9005 9.94251 35.2538 10.1146 34.6842 10.4587C34.1265 10.791 33.6874 11.2656 33.367 11.8827C33.0585 12.4998 32.9042 13.2236 32.9042 14.0543C32.9042 14.8731 33.0585 15.597 33.367 16.2259C33.6874 16.843 34.1265 17.3236 34.6842 17.6677C35.2538 18 35.9005 18.1661 36.6244 18.1661C37.3008 18.1661 37.8941 18.0178 38.4044 17.7211C38.9265 17.4126 39.33 16.9616 39.6148 16.3683H42.4806C42.0653 17.638 41.3355 18.6289 40.2912 19.3409C39.2588 20.041 38.0425 20.3911 36.6422 20.3911C35.4555 20.3911 34.3816 20.1241 33.4204 19.5901C32.4711 19.0442 31.7175 18.2907 31.1598 17.3295C30.6139 16.3683 30.341 15.2766 30.341 14.0543Z" fill="#808080"/>
<path d="M46.2111 11.9539C46.5315 11.4318 46.9468 11.0224 47.4571 10.7257C47.9792 10.429 48.5726 10.2807 49.2371 10.2807V12.8973H48.5785C47.7953 12.8973 47.202 13.0812 46.7985 13.4491C46.4069 13.817 46.2111 14.4578 46.2111 15.3715V20.2843H43.7191V10.4231H46.2111V11.9539Z" fill="#808080"/>
<path d="M54.4044 20.4445C53.455 20.4445 52.6006 20.2368 51.8412 19.8215C51.0817 19.3943 50.4824 18.795 50.0434 18.0237C49.6162 17.2524 49.4026 16.3624 49.4026 15.3537C49.4026 14.345 49.6221 13.455 50.0612 12.6837C50.5121 11.9124 51.1232 11.319 51.8946 10.9037C52.6659 10.4765 53.5262 10.2629 54.4756 10.2629C55.4249 10.2629 56.2852 10.4765 57.0566 10.9037C57.8279 11.319 58.4331 11.9124 58.8722 12.6837C59.3231 13.455 59.5486 14.345 59.5486 15.3537C59.5486 16.3624 59.3172 17.2524 58.8544 18.0237C58.4034 18.795 57.7864 19.3943 57.0032 19.8215C56.2318 20.2368 55.3656 20.4445 54.4044 20.4445ZM54.4044 18.2729C54.8553 18.2729 55.2766 18.1661 55.6682 17.9525C56.0716 17.727 56.392 17.3948 56.6294 16.9557C56.8667 16.5166 56.9854 15.9826 56.9854 15.3537C56.9854 14.4162 56.7362 13.6983 56.2378 13.1999C55.7512 12.6896 55.152 12.4345 54.44 12.4345C53.728 12.4345 53.1287 12.6896 52.6422 13.1999C52.1675 13.6983 51.9302 14.4162 51.9302 15.3537C51.9302 16.2912 52.1616 17.015 52.6244 17.5253C53.099 18.0237 53.6924 18.2729 54.4044 18.2729Z" fill="#808080"/>
<path d="M65.9512 10.2807C67.126 10.2807 68.0753 10.6545 68.7992 11.4021C69.523 12.1378 69.885 13.1702 69.885 14.4993V20.2843H67.393V14.8375C67.393 14.0543 67.1972 13.455 66.8056 13.0397C66.414 12.6125 65.88 12.3989 65.2036 12.3989C64.5153 12.3989 63.9694 12.6125 63.566 13.0397C63.1744 13.455 62.9786 14.0543 62.9786 14.8375V20.2843H60.4866V10.4231H62.9786V11.6513C63.3108 11.2241 63.7321 10.8918 64.2424 10.6545C64.7645 10.4053 65.3341 10.2807 65.9512 10.2807Z" fill="#808080"/>
<path d="M70.7239 15.3181C70.7239 14.3213 70.9197 13.4372 71.3113 12.6659C71.7148 11.8946 72.2547 11.3012 72.9311 10.8859C73.6194 10.4706 74.3848 10.2629 75.2273 10.2629C75.9631 10.2629 76.6039 10.4112 77.1497 10.7079C77.7075 11.0046 78.1525 11.3784 78.4847 11.8293V10.4231H80.9945V20.2843H78.4847V18.8425C78.1643 19.3053 77.7193 19.691 77.1497 19.9995C76.592 20.2962 75.9452 20.4445 75.2095 20.4445C74.3788 20.4445 73.6194 20.2309 72.9311 19.8037C72.2547 19.3765 71.7148 18.7772 71.3113 18.0059C70.9197 17.2227 70.7239 16.3268 70.7239 15.3181ZM78.4847 15.3537C78.4847 14.7485 78.3661 14.2323 78.1287 13.8051C77.8914 13.366 77.571 13.0338 77.1675 12.8083C76.7641 12.571 76.3309 12.4523 75.8681 12.4523C75.4053 12.4523 74.9781 12.565 74.5865 12.7905C74.1949 13.016 73.8745 13.3482 73.6253 13.7873C73.388 14.2145 73.2693 14.7248 73.2693 15.3181C73.2693 15.9114 73.388 16.4336 73.6253 16.8845C73.8745 17.3236 74.1949 17.6618 74.5865 17.8991C74.99 18.1364 75.4172 18.2551 75.8681 18.2551C76.3309 18.2551 76.7641 18.1424 77.1675 17.9169C77.571 17.6796 77.8914 17.3473 78.1287 16.9201C78.3661 16.481 78.4847 15.9589 78.4847 15.3537Z" fill="#808080"/>
</svg>
