<svg width="75" height="24" viewBox="0 0 75 24" fill="none" xmlns="http://www.w3.org/2000/svg">
<g clip-path="url(#clip0_54_387)">
<path d="M11.0307 0.578392C10.2841 0.0227806 9.34555 -0.142055 8.45425 0.125281L2.42519 1.93396C1.18313 2.30681 0.348145 3.42816 0.348145 4.72543V17.6116C0.348145 18.5421 0.776211 19.3942 1.52273 19.9489C2.26938 20.5046 3.20893 20.6693 4.0992 20.4021L8.59993 19.0515C8.45918 18.5873 8.38788 18.1029 8.38788 17.6116V11.7594C8.38788 10.5305 8.83606 9.35677 9.65196 8.45644C10.2508 7.79319 11.0276 7.30388 11.8958 7.04264L12.2053 6.95423V2.91668C12.2053 1.98617 11.7772 1.13407 11.0306 0.578392H11.0307Z" fill="#808080"/>
<path d="M22.2542 9.95044V15.8026C22.2542 17.0989 21.4202 18.2213 20.1772 18.5931L14.1481 20.4019C13.8688 20.4862 13.5844 20.5275 13.3031 20.5275C12.687 20.5275 12.0841 20.3306 11.5716 19.9487C11.3375 19.7739 11.1345 19.5719 10.9677 19.3458C10.7648 19.0745 10.613 18.7721 10.5175 18.4475C10.5165 18.4475 10.5156 18.4475 10.5145 18.4484L10.5165 18.4464C10.4392 18.1801 10.397 17.8998 10.397 17.6114V11.7592C10.397 11.1583 10.5758 10.5946 10.8914 10.1263C11.2069 9.65799 11.6591 9.28425 12.2057 9.06214C12.2932 9.02697 12.3826 8.99474 12.4741 8.96772L13.2116 8.74664L18.5032 7.15897C19.3945 6.89163 20.333 7.05647 21.0796 7.61215C21.8263 8.16783 22.2543 9.01992 22.2543 9.95044H22.2542Z" fill="#808080"/>
<path d="M30.8766 5.22412H28.1821V18.9246H36.9968V16.5225H30.8766V5.22412Z" fill="#808080"/>
<path d="M42.7085 8.31348C39.4709 8.31348 37.3403 10.5694 37.3403 13.7443C37.3403 16.9192 39.4709 19.1751 42.7085 19.1751C45.9461 19.1751 48.0766 16.9192 48.0766 13.7443C48.0766 10.5694 45.9461 8.31348 42.7085 8.31348V8.31348ZM42.7085 16.8984C41.0166 16.8984 39.9096 15.5824 39.9096 13.7443C39.9096 11.8853 41.0165 10.5902 42.7085 10.5902C44.4004 10.5902 45.5074 11.8853 45.5074 13.7443C45.5074 15.5824 44.4004 16.8984 42.7085 16.8984Z" fill="#808080"/>
<path d="M57.1509 10.0057C56.5242 8.91948 55.2292 8.27197 53.7044 8.27197C50.7592 8.27197 48.7749 10.507 48.7749 13.5357C48.7749 16.5435 50.7174 18.7158 53.6208 18.7158C55.1247 18.7158 56.4198 18.1101 57.0673 17.1074V18.862C57.0673 20.5538 56.002 21.6818 54.2265 21.6818C52.6391 21.6818 51.5529 20.909 51.4067 19.5513H48.8375C49.1717 22.2458 51.2396 24.0003 54.0803 24.0003C57.4223 24.0003 59.5529 21.8071 59.5529 18.4025V8.60609H57.297L57.1508 10.0056L57.1509 10.0057ZM54.0595 16.5017C52.472 16.5017 51.365 15.2066 51.365 13.473C51.365 11.7602 52.4512 10.5069 54.0595 10.5069C55.8141 10.5069 56.9838 11.7811 56.9838 13.473C56.9838 15.1858 55.8141 16.5017 54.0595 16.5017Z" fill="#808080"/>
<path d="M63.6865 8.60596H61.1382V18.9244H63.6865V8.60596Z" fill="#808080"/>
<path d="M62.4127 3.46777C61.5563 3.46777 60.9088 4.13615 60.9088 4.97162C60.9088 5.82803 61.5563 6.49647 62.4127 6.49647C63.2483 6.49647 63.9375 5.82809 63.9375 4.97162C63.9375 4.13615 63.2482 3.46777 62.4127 3.46777V3.46777Z" fill="#808080"/>
<path d="M72.2283 15.1441C71.9358 16.3138 70.9959 16.9196 69.8679 16.9196C68.2805 16.9196 67.2988 15.729 67.2988 13.7447C67.2988 11.7395 68.3014 10.5489 69.8888 10.5489C70.9958 10.5489 71.9358 11.1337 72.2283 12.3452H74.6303C74.3588 9.92224 72.4998 8.29297 69.9097 8.29297C66.881 8.29297 64.7505 10.5071 64.7505 13.7447C64.7505 16.9823 66.7975 19.1964 69.7009 19.1964C72.3745 19.1964 74.338 17.5671 74.6513 15.1441H72.2283H72.2283Z" fill="#808080"/>
</g>
<defs>
<clipPath id="clip0_54_387">
<rect width="74.3037" height="24" fill="white" transform="translate(0.348145)"/>
</clipPath>
</defs>
</svg>
