<svg width="89" height="24" viewBox="0 0 89 24" fill="none" xmlns="http://www.w3.org/2000/svg">
<g clip-path="url(#clip0_54_375)">
<path d="M8.64889 16.0005C4.23167 16.0005 0.648865 19.5832 0.648865 24.0004H16.6488C16.6488 19.5832 13.066 16.0005 8.64883 16.0005H8.64889Z" fill="#808080"/>
<path d="M8.64907 8.00002C8.64907 3.58281 5.06632 0 0.649109 0V16C5.06632 16 8.64907 12.4172 8.64907 7.99996V8.00002Z" fill="#808080"/>
<path d="M16.6494 8.00002C21.0666 8.00002 24.6494 4.41728 24.6494 0H8.64941C8.64941 4.41722 12.2322 7.99996 16.6494 7.99996L16.6494 8.00002Z" fill="#808080"/>
<path d="M16.6483 15.9995C16.6483 20.4167 20.2311 23.9995 24.6483 23.9995V7.99951C20.2311 7.99951 16.6483 11.5823 16.6483 15.9995V15.9995Z" fill="#808080"/>
<path d="M40.5841 20.7604C39.2964 20.7604 38.1603 20.5473 37.1755 20.1206C36.1902 19.6941 35.3643 19.1085 34.6976 18.3639C34.0305 17.6194 33.5226 16.7352 33.1735 15.7115C32.8245 14.6878 32.65 13.571 32.65 12.3611C32.65 11.1359 32.8282 10.0075 33.1851 8.97574C33.5418 7.94435 34.0576 7.05623 34.7324 6.31168C35.4071 5.56713 36.2367 4.98548 37.2219 4.56667C38.2067 4.14785 39.3352 3.93848 40.6073 3.93848C41.8793 3.93848 43.0074 4.14427 43.9926 4.55506C44.9775 4.96622 45.8074 5.54386 46.4822 6.28841C47.1569 7.03296 47.6688 7.92108 48.0178 8.95247C48.3668 9.98417 48.5413 11.1127 48.5413 12.3378C48.5413 13.5477 48.3668 14.6685 48.0178 15.6999C47.6688 16.7316 47.157 17.6194 46.4822 18.3639C45.8074 19.1085 44.9734 19.6942 43.981 20.1206C42.9881 20.5473 41.8557 20.7604 40.584 20.7604H40.5841ZM40.6073 6.35822C39.7232 6.35822 38.959 6.52112 38.3155 6.84685C37.6717 7.17258 37.1326 7.60701 36.6985 8.14978C36.2641 8.69291 35.9423 9.32875 35.7329 10.0576C35.5235 10.7869 35.4188 11.5467 35.4188 12.3378C35.4188 13.1289 35.5235 13.885 35.7329 14.6063C35.9423 15.3276 36.2601 15.9674 36.6868 16.5258C37.1133 17.0842 37.6524 17.5264 38.3039 17.852C38.9553 18.1778 39.7232 18.3407 40.6073 18.3407C41.4758 18.3407 42.236 18.1818 42.8875 17.8636C43.5389 17.5459 44.0777 17.1155 44.5045 16.5723C44.931 16.0296 45.2491 15.3974 45.4585 14.6761C45.6679 13.9549 45.7726 13.1834 45.7726 12.3611C45.7726 11.5547 45.6679 10.7906 45.4585 10.0693C45.2491 9.34802 44.931 8.71217 44.5045 8.16138C44.0777 7.61096 43.5426 7.17258 42.8991 6.84679C42.2553 6.52106 41.4915 6.35816 40.6073 6.35816V6.35822Z" fill="#808080"/>
<path d="M50.983 20.597V8.33541H53.4726L53.6122 10.0804C54.5581 8.7775 55.8459 8.12598 57.4745 8.12598C57.6293 8.12598 57.7806 8.12999 57.9282 8.13758C58.0754 8.14554 58.211 8.15721 58.3354 8.17246V10.6387C58.1493 10.6387 57.9667 10.6427 57.7886 10.6504C57.6101 10.6583 57.4356 10.662 57.2651 10.662C56.5824 10.6776 56.0123 10.7979 55.5549 11.0226C55.0972 11.2477 54.725 11.5461 54.4381 11.9184C54.1509 12.2907 53.9455 12.7291 53.8216 13.233C53.6972 13.7372 53.6355 14.2764 53.6355 14.85V20.5969H50.983V20.597Z" fill="#808080"/>
<path d="M60.0582 20.5971V4.14746H62.7106V10.0572C63.1603 9.437 63.7536 8.96004 64.4905 8.62635C65.2271 8.29296 65.9756 8.12611 66.7358 8.12611C67.5886 8.12611 68.3489 8.27734 69.0159 8.5798C69.6826 8.88227 70.2491 9.30904 70.7144 9.85946C71.1797 10.4102 71.5324 11.0694 71.773 11.8371C72.0133 12.6049 72.1337 13.4699 72.1337 14.4314C72.1337 15.3155 72.025 16.1415 71.808 16.9093C71.5906 17.6771 71.2572 18.3482 70.8075 18.9219C70.3574 19.4959 69.7954 19.9457 69.1206 20.2713C68.4459 20.5971 67.6509 20.76 66.7358 20.76C64.9827 20.76 63.6413 20.1939 62.7106 19.0615C62.6949 19.3254 62.6833 19.5813 62.6757 19.8293C62.6677 20.0776 62.6641 20.3335 62.6641 20.5971H60.0582V20.5971ZM66.1774 18.4566C66.7511 18.4566 67.2477 18.3519 67.6665 18.1425C68.0853 17.9331 68.4303 17.6502 68.7019 17.2932C68.9731 16.9366 69.1748 16.5178 69.3068 16.0368C69.4384 15.5562 69.5046 15.0364 69.5046 14.4779C69.5046 13.9195 69.4384 13.396 69.3068 12.9074C69.1748 12.4188 68.9731 11.9964 68.7019 11.6393C68.4303 11.2827 68.0813 11.0035 67.6549 10.8017C67.2281 10.6004 66.7202 10.4993 66.1309 10.4993C65.526 10.4993 65.0101 10.6156 64.5837 10.8483C64.1569 11.0809 63.8042 11.3874 63.525 11.7673C63.2458 12.1475 63.0364 12.578 62.8968 13.0586C62.7572 13.5395 62.6874 14.0205 62.6874 14.5011C62.6874 15.0286 62.7572 15.5289 62.8968 16.0018C63.0364 16.4752 63.2458 16.89 63.525 17.2466C63.8042 17.6036 64.1608 17.8944 64.5953 18.1191C65.0294 18.3441 65.5568 18.4565 66.1774 18.4565V18.4566Z" fill="#808080"/>
<path d="M76.0653 3.24023C76.5459 3.24023 76.9454 3.38782 77.2635 3.68226C77.5812 3.97713 77.7406 4.38026 77.7406 4.89216C77.7406 5.38875 77.5813 5.78429 77.2635 6.0788C76.9455 6.37366 76.5459 6.52088 76.0653 6.52088C75.5534 6.52088 75.1422 6.37366 74.8321 6.0788C74.5217 5.78429 74.3668 5.38881 74.3668 4.89216C74.3668 4.38033 74.5217 3.97713 74.8321 3.68226C75.1422 3.38782 75.5534 3.24023 76.0653 3.24023V3.24023ZM74.7158 20.5973V8.33571H77.3682V20.5973H74.7158V20.5973Z" fill="#808080"/>
<path d="M84.1154 8.33573H87.7915V10.6392H84.1154V16.0371C84.1154 16.3475 84.1346 16.642 84.1736 16.9212C84.2121 17.2005 84.2899 17.4528 84.4062 17.6774C84.5226 17.9024 84.689 18.0846 84.9064 18.2242C85.1234 18.3638 85.4183 18.4335 85.7906 18.4335C86.4421 18.4335 87.0005 18.2398 87.4658 17.8519L88.3499 19.8296C87.9464 20.14 87.4811 20.3687 86.9539 20.516C86.4263 20.6632 85.9069 20.737 85.395 20.737C84.0608 20.737 83.0759 20.3996 82.4401 19.7249C81.8039 19.0502 81.4862 17.9916 81.4862 16.549V10.6392H79.5551V8.33573H81.4862V4.8457H84.1153V8.33573H84.1154Z" fill="#808080"/>
</g>
<defs>
<clipPath id="clip0_54_375">
<rect width="87.7003" height="24" fill="white" transform="translate(0.649902)"/>
</clipPath>
</defs>
</svg>
