<svg width="97" height="28" viewBox="0 0 97 28" fill="none" xmlns="http://www.w3.org/2000/svg">
<g clip-path="url(#clip0_54_334)">
<path d="M53.8209 6.79932L51.4928 14.8341C51.2649 15.6858 51.0156 16.5365 50.7663 17.8237C50.5745 16.8099 50.332 15.8062 50.0397 14.8166L47.7117 6.80222H44.7686L42.3813 14.8166C42.0718 15.8015 41.8291 16.8062 41.6548 17.8237C41.4055 16.4958 41.1775 15.6441 40.9486 14.8166L38.6855 6.80222H35.7754L40.3258 21.9764H42.9207L46.2188 11.5331L49.4577 21.9764H52.0322L56.6408 6.79932H53.8209Z" fill="#808080"/>
<path d="M61.0651 11.4092C58.4072 11.4092 56.5807 12.8827 56.603 15.0837H58.7623C58.7419 14.0254 59.5509 13.3813 60.9419 13.3813C62.1884 13.3813 63.0605 13.9216 63.0605 15.333V15.5609L60.1329 15.7899C57.8281 15.9761 56.3333 17.0509 56.3333 19.0492C56.3333 20.9592 57.6409 22.2503 59.8419 22.2503C61.4609 22.2503 62.6861 21.5237 63.1226 20.4644L63.3088 21.9806H65.5302V15.7462C65.5283 13.0301 63.951 11.4092 61.0651 11.4092ZM63.0789 17.824C63.0789 19.734 61.75 20.3364 60.6703 20.3364C59.5286 20.3364 58.9058 19.8388 58.9058 18.9454C58.9058 18.115 59.4452 17.6164 60.9429 17.4709L63.077 17.2847L63.0789 17.824Z" fill="#808080"/>
<path d="M75.3733 13.11C74.7505 12.0303 73.4633 11.3862 71.9481 11.3862C69.0205 11.3862 67.0475 13.6076 67.0475 16.6186C67.0475 19.6082 68.9788 21.7675 71.8647 21.7675C73.3595 21.7675 74.6467 21.1651 75.2908 20.1689V21.915C75.2908 23.596 74.2315 24.7174 72.4671 24.7174C70.8888 24.7174 69.8092 23.9491 69.6637 22.5998H67.1086C67.4403 25.2781 69.4958 27.0222 72.3196 27.0222C75.641 27.0222 77.7596 24.8425 77.7596 21.4581V11.719H75.5168L75.3733 13.11ZM72.3012 19.5665C70.7229 19.5665 69.6229 18.2793 69.6229 16.5594C69.6229 14.857 70.7016 13.6105 72.3012 13.6105C74.0472 13.6105 75.2113 14.8774 75.2113 16.5594C75.2055 18.2589 74.0424 19.5665 72.2992 19.5665H72.3012Z" fill="#808080"/>
<path d="M84.1515 20.1109C82.615 20.1109 81.6595 19.2175 81.5974 17.5781H88.9056V16.8099C88.9056 13.5496 87.0994 11.4116 84.1098 11.4116C81.1618 11.4116 79.1471 13.5457 79.1471 16.8506C79.1471 20.1109 81.1405 22.2488 84.1098 22.2488C86.5804 22.2488 88.5108 20.7753 88.9473 18.5947H86.6008C86.3515 19.4852 85.3757 20.1109 84.1515 20.1109ZM84.0264 13.5079C85.397 13.5079 86.3729 14.3596 86.3932 15.9582H81.6401C81.6595 14.3984 82.6353 13.505 84.0264 13.505V13.5079Z" fill="#808080"/>
<path d="M93.0595 12.9235L92.914 11.7401H90.5859V21.9758H93.1245V16.9928C93.1245 14.9994 94.1828 13.879 96.0104 13.879H97.0046V11.678C95.4526 11.3249 93.6823 11.678 93.0595 12.9235Z" fill="#808080"/>
<path d="M21.149 13.8452L17.0176 17.9766L21.149 22.1021C22.244 23.1968 23.729 23.8117 25.2774 23.8117C26.8258 23.8117 28.3108 23.1968 29.4059 22.1021V22.1021C29.9481 21.56 30.3783 20.9164 30.6718 20.208C30.9652 19.4997 31.1163 18.7404 31.1163 17.9736C31.1163 17.2069 30.9652 16.4476 30.6718 15.7393C30.3783 15.0309 29.9481 14.3873 29.4059 13.8452V13.8452C28.8638 13.3029 28.2202 12.8728 27.5118 12.5793C26.8034 12.2858 26.0442 12.1348 25.2774 12.1348C24.5107 12.1348 23.7514 12.2858 23.043 12.5793C22.3347 12.8728 21.6911 13.3029 21.149 13.8452Z" fill="#808080"/>
<path d="M11.4272 12.3854L15.5557 16.5138L19.6841 12.3854C20.2264 11.8433 20.6566 11.1997 20.95 10.4913C21.2435 9.78292 21.3946 9.02368 21.3946 8.25692C21.3946 7.49016 21.2435 6.73092 20.95 6.02255C20.6566 5.31418 20.2264 4.67056 19.6841 4.12846L15.5557 0L11.4272 4.12846C10.885 4.67056 10.4548 5.31418 10.1613 6.02255C9.86785 6.73092 9.7168 7.49016 9.7168 8.25692C9.7168 9.02368 9.86785 9.78292 10.1613 10.4913C10.4548 11.1997 10.885 11.8433 11.4272 12.3854Z" fill="#808080"/>
<path d="M9.96795 13.8452L14.0964 17.9766L9.96795 22.105C8.87288 23.1997 7.38788 23.8146 5.83949 23.8146C4.29111 23.8146 2.80611 23.1997 1.71103 22.105V22.105C1.16877 21.5629 0.73862 20.9193 0.445142 20.2109C0.151664 19.5026 0.000610352 18.7433 0.000610352 17.9766C0.000610352 17.2098 0.151664 16.4506 0.445142 15.7422C0.73862 15.0338 1.16877 14.3902 1.71103 13.8481V13.8481C2.25294 13.3057 2.89641 12.8753 3.60467 12.5815C4.31294 12.2878 5.07213 12.1365 5.83889 12.1362C6.60565 12.136 7.36495 12.2867 8.07342 12.58C8.7819 12.8732 9.42566 13.3031 9.96795 13.8452Z" fill="#808080"/>
<path d="M20.3925 28.0008L15.5559 18.9766L10.7194 28.0008H20.3925Z" fill="#808080"/>
</g>
<defs>
<clipPath id="clip0_54_334">
<rect width="97.0033" height="28" fill="white" transform="translate(-0.00164795)"/>
</clipPath>
</defs>
</svg>
