<svg width="105" height="24" viewBox="0 0 105 24" fill="none" xmlns="http://www.w3.org/2000/svg">
<g clip-path="url(#clip0_54_323)">
<path d="M41.827 16.9207V19.8147H29.7768V17.5302L37.0371 9.34911H29.7768V6.45605H41.6162V8.85003L34.625 16.9207H41.827Z" fill="#808080"/>
<path d="M55.7127 11.1904V19.8184H52.1378V17.9767H52.0595C51.6116 18.6867 50.2972 19.9499 47.6923 19.9499C45.0875 19.9499 43.2739 18.4768 43.2739 16.1089C43.2739 13.5312 45.22 11.559 50.8223 11.559H52.1378V11.1643C52.1378 9.7173 51.2441 8.84968 49.7971 8.84968C48.3762 8.84968 47.5085 9.61186 47.4031 10.7697H43.8784C43.9306 7.77119 46.3507 6.11328 49.7971 6.11328C53.611 6.11328 55.7127 7.98307 55.7127 11.1904ZM52.1378 14.7673V13.8204H50.8495C47.8239 13.8204 46.9562 14.7412 46.9562 15.8458C46.9562 16.8199 47.7455 17.4224 48.9847 17.4224C50.744 17.4224 52.1378 16.2405 52.1378 14.7673Z" fill="#808080"/>
<path d="M71.499 11.6116V19.8188H67.7896V12.4019C67.7896 10.5341 66.8687 9.37628 65.4227 9.37628C63.5549 9.37628 62.2655 10.6657 62.2655 13.0325V19.8198H58.5571V6.45612H62.2655V8.92842C63.1081 7.00842 64.6334 6.1167 66.5534 6.1167C69.7367 6.11369 71.499 8.35001 71.499 11.6116Z" fill="#808080"/>
<path d="M78.7328 9.34915V14.8471C78.7328 16.2148 79.5482 16.9558 80.8898 16.9558C81.4421 16.9558 82.1259 16.8765 83.0729 16.3764V19.5065C82.2304 19.9543 81.179 20.0859 80.3104 20.0859C77.1281 20.0859 75.0233 18.2181 75.0233 15.3773V9.35216H72.6294V6.4561H72.6826C74.2893 6.4561 75.0233 5.79836 75.0233 4.24689V2.46045H78.7328V6.45911H83.336V9.34915H78.7328Z" fill="#808080"/>
<path d="M86.8429 0H86.9634C87.544 0 88.1008 0.230639 88.5113 0.641179C88.9219 1.05172 89.1525 1.60853 89.1525 2.18912V2.18912C89.1525 2.47655 89.0959 2.76117 88.9859 3.02671C88.8758 3.29225 88.7146 3.53351 88.5113 3.73671C88.308 3.93991 88.0667 4.10106 87.8011 4.21097C87.5355 4.32087 87.2508 4.37737 86.9634 4.37724H86.8429C86.5555 4.37737 86.2708 4.32087 86.0052 4.21097C85.7396 4.10106 85.4983 3.93991 85.295 3.73671C85.0917 3.53351 84.9305 3.29225 84.8204 3.02671C84.7104 2.76117 84.6538 2.47655 84.6538 2.18912V2.18912C84.6538 1.60853 84.8844 1.05172 85.295 0.641179C85.7055 0.230639 86.2623 0 86.8429 0V0ZM85.0484 6.4559H88.7509V19.8186H85.0454L85.0484 6.4559Z" fill="#808080"/>
<path d="M97.7757 20.1598C93.515 20.1598 90.8579 17.2929 90.8579 13.1104C90.8579 8.98023 93.515 6.11328 97.7757 6.11328C101.38 6.11328 103.878 8.19194 104.247 11.5359H100.59C100.327 10.0105 99.3804 9.01135 97.7235 9.01135C95.6448 9.01135 94.4348 10.6683 94.4348 13.1145C94.4348 15.5606 95.6448 17.2175 97.7235 17.2175C99.4597 17.2175 100.407 16.1662 100.67 14.5063H104.299C104.014 17.9245 101.511 20.1598 97.7757 20.1598Z" fill="#808080"/>
<path d="M20.2652 4.25667C20.6004 4.59897 20.8532 5.01305 21.0046 5.46753C21.156 5.92202 21.202 6.405 21.1391 6.8799C21.0762 7.3548 20.9061 7.80916 20.6416 8.20856C20.3771 8.60797 20.0252 8.94195 19.6125 9.18521C16.6375 10.9343 13.166 11.646 9.7428 11.2087C6.31959 10.7714 3.13846 9.20987 0.6987 6.76914L5.10205 2.27441C6.56007 3.73206 8.45895 4.66699 10.5033 4.93377C12.5477 5.20056 14.6229 4.78423 16.4061 3.74956C17.0132 3.39187 17.7223 3.24702 18.4209 3.33797C19.1196 3.42892 19.768 3.75047 20.2632 4.25165L20.2652 4.25667Z" fill="#808080"/>
<path d="M20.2464 4.23662C19.6562 3.64678 18.856 3.31543 18.0216 3.31543C17.1872 3.31543 16.387 3.64678 15.7968 4.23662L2.44118 17.5923C1.85134 18.1824 1.51999 18.9827 1.51999 19.817C1.51999 20.6514 1.85134 21.4517 2.44118 22.0418V22.0418C2.73326 22.3341 3.08008 22.566 3.46182 22.7242C3.84356 22.8824 4.25273 22.9638 4.66595 22.9638C5.07917 22.9638 5.48835 22.8824 5.87008 22.7242C6.25182 22.566 6.59864 22.3341 6.89072 22.0418L20.2464 8.68616C20.5387 8.39408 20.7706 8.04726 20.9288 7.66553C21.087 7.28379 21.1684 6.87462 21.1684 6.46139C21.1684 6.04817 21.087 5.639 20.9288 5.25726C20.7706 4.87552 20.5387 4.5287 20.2464 4.23662Z" fill="#808080"/>
<path d="M2.42442 22.0168C2.08925 21.6746 1.83634 21.2607 1.68485 20.8063C1.53336 20.352 1.48728 19.8691 1.55008 19.3943C1.61288 18.9194 1.78292 18.4652 2.04732 18.0658C2.31172 17.6664 2.66354 17.3325 3.07613 17.0892C6.0513 15.3405 9.5228 14.6289 12.9461 15.0659C16.3693 15.503 19.5506 17.0641 21.9909 19.5043L17.5856 24C16.1276 22.5424 14.2287 21.6075 12.1843 21.3407C10.14 21.0739 8.06475 21.4902 6.28149 22.5249C5.67376 22.8817 4.96435 23.0254 4.26568 22.9334C3.567 22.8413 2.91902 22.5188 2.42442 22.0168V22.0168Z" fill="#808080"/>
</g>
<defs>
<clipPath id="clip0_54_323">
<rect width="103.601" height="24" fill="white" transform="translate(0.699677)"/>
</clipPath>
</defs>
</svg>
