<svg width="115" height="89" viewBox="0 0 115 89" fill="none" xmlns="http://www.w3.org/2000/svg">
<path d="M0.382937 19.4688C0.382937 14.1711 2.46782 9.66815 6.63758 5.95982C10.8073 1.98661 15.7217 0 21.3807 0C23.7634 0 26.295 0.529762 28.9756 1.58929L28.5288 1.19196L31.2094 2.38393H31.6561C32.5497 2.91369 33.5921 3.57589 34.7835 4.37054C34.7835 4.63542 35.2302 5.16518 36.1237 5.95982C43.5697 12.5818 46.6971 22.5149 45.5057 35.7589C44.3143 54.8304 32.9964 72.0476 11.5519 87.4107C10.3606 88.4702 9.0203 89 7.5311 89C5.14838 89 3.21242 88.0729 1.72322 86.2188C-0.957343 83.0402 -0.510583 80.1265 3.0635 77.4777C20.6361 64.7634 30.1669 50.9896 31.6561 36.1562C28.3799 38.0104 24.9547 38.9375 21.3807 38.9375C15.7217 38.9375 10.8073 37.0833 6.63758 33.375C2.46782 29.4018 0.382937 24.7664 0.382937 19.4688ZM69.6307 19.4688C69.6307 14.1711 71.7156 9.66815 75.8854 5.95982C80.0551 1.98661 84.9695 0 90.6285 0C93.0112 0 95.5428 0.529762 98.2234 1.58929L97.7766 1.19196C98.6702 1.45685 99.5637 1.85417 100.457 2.38393H100.904C102.095 2.91369 103.138 3.57589 104.031 4.37054C104.031 4.63542 104.478 5.16518 105.372 5.95982C112.818 12.5818 115.945 22.5149 114.754 35.7589C113.562 54.8304 102.244 72.0476 80.7997 87.4107C79.6084 88.4702 78.2681 89 76.7789 89C74.3962 89 72.6091 88.0729 71.4178 86.2188C68.4394 83.0402 68.7372 80.1265 72.3113 77.4777C89.8839 64.7634 99.4147 50.9896 100.904 36.1562C97.6277 38.0104 94.2025 38.9375 90.6285 38.9375C84.9695 38.9375 80.0551 37.0833 75.8854 33.375C71.7156 29.4018 69.6307 24.7664 69.6307 19.4688Z" fill="#473726"/>
</svg>
