<svg width="45" height="53" viewBox="0 0 45 53" fill="none" xmlns="http://www.w3.org/2000/svg">
<path d="M6.4363 6.4363C10.8113 2.14543 16.0697 0 22.2115 0C28.3534 0 33.5697 2.14543 37.8606 6.4363C42.2356 10.643 44.4231 15.7332 44.4231 21.7067C44.4231 27.4279 42.2776 33.2332 37.9868 39.1226C33.78 45.012 28.5216 49.4712 22.2115 52.5V43.5397C16.0697 43.5397 10.8113 41.3942 6.4363 37.1034C2.14543 32.8125 0 27.6803 0 21.7067C0 15.7332 2.14543 10.643 6.4363 6.4363ZM20.9495 23.095V15.3966H13.125V23.095H17.0373L14.387 28.143H18.2993L20.9495 23.095ZM31.2981 23.095V15.3966H23.4736V23.095H27.3858L24.8618 28.143H28.774L31.2981 23.095Z" fill="#473726"/>
</svg>
